<svg width="304" height="65" fill="none" xmlns="http://www.w3.org/2000/svg"><path d="M27.72 49.832c-3.37.512-6.912.896-10.624 1.152-3.67.299-7.68.512-12.032.64a463.662 463.662 0 01-3.072-24.96C1.224 18.174.797 10.877.712 4.776 6.642 3.752 11.4 3.048 14.984 2.664c3.584-.384 7.339-.619 11.264-.704 0 .768-.043 1.515-.128 2.24a13.058 13.058 0 01-.256 1.92c-3.499.043-6.87.213-10.112.512-3.2.256-6.357.64-9.472 1.152-.085 2.56-.085 5.205 0 7.936.085 2.73.235 5.675.448 8.832 4.096-.725 7.253-1.237 9.472-1.536a92.638 92.638 0 016.72-.768c.17.597.277 1.216.32 1.856.085.64.107 1.344.064 2.112-3.243.256-6.059.533-8.448.832-2.347.256-4.97.619-7.872 1.088.299 3.499.619 6.89.96 10.176.384 3.285.81 6.421 1.28 9.408 3.541-.085 6.763-.299 9.664-.64a86.375 86.375 0 008.512-1.408c.17.597.277 1.301.32 2.112.085.81.085 1.493 0 2.048zm10.594-11.52c0 2.005.043 4.288.128 6.848.085 2.517.192 4.352.32 5.504-.555.17-1.216.32-1.984.448s-1.515.192-2.24.192c-.299-4.48-.555-10.283-.768-17.408-.213-7.125-.32-13.163-.32-18.112a6.48 6.48 0 011.536-.512 8.834 8.834 0 011.856-.192 13.263 13.263 0 012.496.256c-.085.768-.192 2.005-.32 3.712-.085 1.664-.15 2.752-.192 3.264 1.408-2.347 2.901-4.096 4.48-5.248 1.579-1.152 3.243-1.728 4.992-1.728 2.645 0 4.565.981 5.76 2.944 1.237 1.92 1.856 4.95 1.856 9.088 0 3.328-.277 7.061-.832 11.2-.512 4.139-1.067 7.381-1.664 9.728a27.088 27.088 0 01-2.304-.256c-.81-.17-1.557-.363-2.24-.576.768-4.181 1.323-7.893 1.664-11.136.341-3.243.512-6.293.512-9.152 0-2.688-.341-4.63-1.024-5.824-.64-1.195-1.707-1.792-3.2-1.792s-2.987.747-4.48 2.24c-1.45 1.493-2.71 3.541-3.776 6.144-.085 3.072-.15 5.312-.192 6.72a122.64 122.64 0 00-.064 3.648zm29.308-5.76c0 3.883.555 6.933 1.664 9.152 1.11 2.219 2.581 3.328 4.416 3.328 1.408 0 2.603-.704 3.584-2.112 1.024-1.45 1.899-3.69 2.624-6.72-.085-3.2-.32-6.123-.704-8.768-.341-2.688-.853-5.184-1.536-7.488a5.67 5.67 0 00-1.28-.256 6.844 6.844 0 00-1.344-.128c-2.475 0-4.33 1.088-5.568 3.264-1.237 2.133-1.856 5.376-1.856 9.728zm17.28 5.632c0 8.619-1.13 15.21-3.392 19.776-2.261 4.565-5.376 6.848-9.344 6.848-2.73 0-4.992-.917-6.784-2.752-1.792-1.835-2.923-4.33-3.392-7.488.64-.47 1.344-.875 2.112-1.216.81-.341 1.621-.597 2.432-.768.427 3.03 1.11 5.227 2.048 6.592.939 1.365 2.24 2.048 3.904 2.048 2.133 0 3.84-1.515 5.12-4.544 1.28-2.987 2.048-7.36 2.304-13.12-.853 1.75-1.856 3.05-3.008 3.904-1.11.853-2.41 1.28-3.904 1.28-3.243 0-5.824-1.43-7.744-4.288-1.877-2.901-2.816-6.805-2.816-11.712 0-5.205 1.152-9.301 3.456-12.288 2.347-3.03 5.483-4.544 9.408-4.544 1.237 0 2.496.15 3.776.448 1.323.299 2.539.725 3.648 1.28.64 2.773 1.152 6.08 1.536 9.92.427 3.797.64 7.339.64 10.624zm12.683 14.208c-.427.128-1.11.235-2.048.32-.896.128-1.664.192-2.304.192-.683-9.515-1.088-18.24-1.216-26.176-.085-7.979.107-16.128.576-24.448a6.859 6.859 0 011.408-.512 5.435 5.435 0 012.816-.128c.427.043.875.128 1.344.256-.683 6.613-1.088 14.443-1.216 23.488-.085 9.003.128 18.005.64 27.008zm13.518-50.816a7.191 7.191 0 011.536.256c.469.085.896.235 1.28.448-.427.939-.875 2.07-1.344 3.392a33.18 33.18 0 00-1.024 3.776c-.469.085-1.067.15-1.792.192-.725 0-1.472-.021-2.24-.064a14.101 14.101 0 01-.192-1.024V7.528c0-.896.085-1.856.256-2.88.213-1.024.491-1.899.832-2.624.469-.213.896-.341 1.28-.384.384-.085.853-.107 1.408-.064zm-4.928 15.552a5.882 5.882 0 011.536-.64 5.845 5.845 0 011.728-.256c.341 0 .64.021.896.064.299.043.597.107.896.192-.853 4.48-1.451 9.728-1.792 15.744-.341 6.016-.341 11.627 0 16.832-.299.17-.683.299-1.152.384a7.86 7.86 0 01-1.408.128c-.213 0-.427-.021-.64-.064-.171 0-.384-.021-.64-.064-.725-5.419-1.045-11.008-.96-16.768.128-5.803.64-10.987 1.536-15.552zm21.346 13.44c3.072 2.219 5.077 4.117 6.016 5.696.981 1.536 1.472 3.243 1.472 5.12 0 2.944-.939 5.376-2.816 7.296-1.878 1.92-4.267 2.88-7.168 2.88-3.03 0-5.504-1.088-7.424-3.264-1.878-2.176-2.816-5.056-2.816-8.64a10.29 10.29 0 011.984-.448 8.92 8.92 0 012.112-.128c-.086 2.859.405 5.099 1.472 6.72 1.109 1.621 2.688 2.432 4.736 2.432 1.536 0 2.752-.512 3.648-1.536.938-1.067 1.408-2.496 1.408-4.288 0-1.45-.406-2.795-1.216-4.032-.811-1.28-2.56-2.901-5.248-4.864-3.158-2.304-5.227-4.267-6.208-5.888-.982-1.664-1.472-3.499-1.472-5.504 0-2.688.81-4.821 2.432-6.4 1.621-1.621 3.818-2.432 6.592-2.432 2.645 0 4.714.768 6.208 2.304 1.536 1.536 2.602 3.99 3.2 7.36-.64.299-1.302.533-1.984.704-.64.128-1.323.235-2.048.32-.342-2.517-.96-4.352-1.856-5.504-.854-1.152-2.048-1.728-3.584-1.728-1.28 0-2.304.427-3.072 1.28-.726.853-1.088 2.005-1.088 3.456 0 1.493.426 2.88 1.28 4.16.853 1.28 2.666 2.923 5.44 4.928zm36.291-2.432c0 3.456-.534 7.51-1.6 12.16-1.024 4.608-2.091 8.192-3.2 10.752a13.124 13.124 0 01-2.176-.448 11.481 11.481 0 01-1.984-.832 63.756 63.756 0 002.944-10.88c.725-3.797 1.088-7.36 1.088-10.688 0-3.328-.342-5.653-1.024-6.976-.64-1.365-1.792-2.048-3.456-2.048-1.75 0-3.478.981-5.184 2.944-1.707 1.92-3.03 4.523-3.968 7.808v.192c0 2.39.106 5.355.32 8.896.213 3.541.426 6.123.64 7.744-.47.128-1.131.256-1.984.384-.854.085-1.664.128-2.432.128-.342-4.48-.598-8.683-.768-12.608a255.614 255.614 0 01-.256-10.944c0-3.456.128-7.445.384-11.968.256-4.565.554-7.957.896-10.176a6.488 6.488 0 011.728-.64 6.49 6.49 0 011.792-.256c.426 0 .917.085 1.472.256.554.128.917.213 1.088.256-.683 3.243-1.259 6.763-1.728 10.56-.47 3.755-.79 7.51-.96 11.264 1.322-2.475 2.837-4.373 4.544-5.696 1.706-1.323 3.477-1.984 5.312-1.984 2.986 0 5.141 1.024 6.464 3.072 1.365 2.005 2.048 5.248 2.048 9.728zm30.387 6.656c.81-.043 1.536 0 2.176.128a6.908 6.908 0 011.984.704c-.256 5.12-1.558 9.003-3.904 11.648-2.347 2.645-5.632 3.968-9.856 3.968-4.651 0-8.256-1.75-10.816-5.248-2.518-3.499-3.776-8.49-3.776-14.976 0-7.85 1.621-14.208 4.864-19.072 3.285-4.864 7.573-7.296 12.864-7.296 3.712 0 6.442 1.216 8.192 3.648 1.749 2.39 2.56 6.037 2.432 10.944-.598.384-1.323.683-2.176.896-.811.17-1.75.235-2.816.192.298-4.224-.064-7.275-1.088-9.152-1.024-1.877-2.838-2.816-5.44-2.816-3.2 0-5.91 2.005-8.128 6.016-2.219 4.01-3.328 9.195-3.328 15.552 0 5.675.853 10.027 2.56 13.056 1.706 3.03 4.16 4.544 7.36 4.544 2.901 0 5.141-1.13 6.72-3.392 1.578-2.304 2.304-5.419 2.176-9.344zm33.144-7.616c0 2.816-.384 6.55-1.152 11.2-.768 4.65-1.686 8.917-2.752 12.8-.64 0-1.323-.064-2.048-.192a16.896 16.896 0 01-2.112-.512c.042-.17.085-.384.128-.64.042-.213.128-.512.256-.896.128-.683.234-1.173.32-1.472.085-.341.149-.64.192-.896-.896.64-1.92 1.13-3.072 1.472-1.11.341-2.304.512-3.584.512-2.902 0-5.248-.768-7.04-2.304-1.792-1.579-2.688-3.648-2.688-6.208 0-2.773 1.173-4.885 3.52-6.336 2.346-1.45 5.802-2.176 10.368-2.176.682 0 1.344.021 1.984.064.64 0 1.493.021 2.56.064.042-.427.064-.896.064-1.408v-2.432c0-3.413-.427-5.888-1.28-7.424-.811-1.536-2.176-2.304-4.096-2.304-1.963 0-3.606.875-4.928 2.624-1.323 1.707-2.027 3.883-2.112 6.528-1.195-.17-2.155-.448-2.88-.832-.726-.427-1.28-.981-1.664-1.664.512-2.816 1.92-5.205 4.224-7.168 2.346-1.963 5.013-2.944 8-2.944 3.242 0 5.674 1.067 7.296 3.2 1.664 2.09 2.496 5.205 2.496 9.344zm-18.496 12.992c0 1.579.512 2.837 1.536 3.776 1.024.896 2.368 1.344 4.032 1.344 1.194 0 2.325-.17 3.392-.512a10.73 10.73 0 003.071-1.664c.342-1.75.598-3.307.769-4.672a44.85 44.85 0 00.448-4.096c-4.395-.256-7.702.107-9.92 1.088-2.219.939-3.328 2.517-3.328 4.736zm31.881 8.96a7.116 7.116 0 01-1.216.32 7.86 7.86 0 01-1.408.128 3.61 3.61 0 01-.96 0 5.062 5.062 0 01-.768-.192c-1.067-5.419-1.792-11.093-2.176-17.024a167.295 167.295 0 01-.064-17.92 3.71 3.71 0 011.088-.256c.427-.085 1.067-.128 1.92-.128.427 0 .832.043 1.216.128.427.043.853.128 1.28.256a123.842 123.842 0 00-.576 4.672 58.756 58.756 0 00-.256 3.648c.981-3.328 2.283-5.952 3.904-7.872s3.307-2.88 5.056-2.88c1.707 0 2.965.64 3.776 1.92.811 1.237 1.216 3.157 1.216 5.76 0 .512-.021 1.067-.064 1.664s-.085 1.237-.128 1.92c-.512.128-1.131.235-1.856.32-.683.043-1.429.043-2.24 0 .085-.64.149-1.237.192-1.792.043-.597.064-1.173.064-1.728 0-1.365-.171-2.368-.512-3.008-.341-.683-.853-1.024-1.536-1.024-1.451 0-2.901 1.536-4.352 4.608-1.451 3.03-2.603 6.976-3.456 11.84.128 2.432.341 5.035.64 7.808.299 2.73.704 5.675 1.216 8.832zm36.487 1.984c-.512.17-1.131.299-1.856.384a9.89 9.89 0 01-1.792.192 131.256 131.256 0 01-.512-8.256c-.811 2.56-1.878 4.437-3.2 5.632-1.323 1.237-2.987 1.856-4.992 1.856-3.286 0-5.888-1.536-7.808-4.608-1.92-3.072-2.881-7.147-2.881-12.224 0-5.59 1.259-10.048 3.777-13.376 2.56-3.37 5.952-5.056 10.176-5.056.682 0 1.386.043 2.112.128.725.085 1.386.213 1.984.384-.043-4.01-.086-6.848-.128-8.512v-4.48c.384-.213.874-.384 1.472-.512a8.238 8.238 0 011.728-.192c.341 0 .704.043 1.088.128.384.043.81.107 1.28.192-.214 2.645-.384 6.443-.512 11.392-.086 4.907-.128 13.91-.128 27.008v5.056c.042 1.408.106 3.03.192 4.864zm-18.176-17.728c0 4.395.576 7.808 1.728 10.24 1.152 2.39 2.752 3.584 4.8 3.584 1.877 0 3.413-1.045 4.608-3.136 1.237-2.133 2.069-5.248 2.496-9.344a2671.9 2671.9 0 01-.256-7.424c-.043-2.56-.086-5.141-.128-7.744a6.774 6.774 0 00-1.664-.32 13.613 13.613 0 00-1.92-.128c-2.902 0-5.248 1.28-7.04 3.84-1.75 2.517-2.624 5.995-2.624 10.432zm36.732-2.816c3.072 2.219 5.077 4.117 6.016 5.696.981 1.536 1.472 3.243 1.472 5.12 0 2.944-.939 5.376-2.816 7.296-1.878 1.92-4.267 2.88-7.168 2.88-3.03 0-5.504-1.088-7.424-3.264-1.878-2.176-2.816-5.056-2.816-8.64a10.29 10.29 0 011.984-.448 8.92 8.92 0 012.112-.128c-.086 2.859.405 5.099 1.472 6.72 1.109 1.621 2.688 2.432 4.736 2.432 1.536 0 2.752-.512 3.648-1.536.938-1.067 1.408-2.496 1.408-4.288 0-1.45-.406-2.795-1.216-4.032-.811-1.28-2.56-2.901-5.248-4.864-3.158-2.304-5.227-4.267-6.208-5.888-.982-1.664-1.472-3.499-1.472-5.504 0-2.688.81-4.821 2.432-6.4 1.621-1.621 3.818-2.432 6.592-2.432 2.645 0 4.714.768 6.208 2.304 1.536 1.536 2.602 3.99 3.2 7.36-.64.299-1.302.533-1.984.704-.64.128-1.323.235-2.048.32-.342-2.517-.96-4.352-1.856-5.504-.854-1.152-2.048-1.728-3.584-1.728-1.28 0-2.304.427-3.072 1.28-.726.853-1.088 2.005-1.088 3.456 0 1.493.426 2.88 1.28 4.16.853 1.28 2.666 2.923 5.44 4.928z" fill="#434343"/></svg>