<svg height="512pt" viewBox="0 0 511 512" width="512pt" xmlns="http://www.w3.org/2000/svg"><path d="M361.5 392v40c0 44.1133-35.8867 80-80 80h-201c-44.1133 0-80-35.8867-80-80V80c0-44.1133 35.8867-80 80-80h201c44.1133 0 80 35.8867 80 80v40c0 11.0469-8.9531 20-20 20s-20-8.9531-20-20V80c0-22.0547-17.9453-40-40-40h-201c-22.0547 0-40 17.9453-40 40v352c0 22.0547 17.9453 40 40 40h201c22.0547 0 40-17.9453 40-40v-40c0-11.0469 8.9531-20 20-20s20 8.9531 20 20zm136.3555-170.3555l-44.7852-44.7851c-7.8125-7.8125-20.4766-7.8125-28.2851 0-7.8125 7.8086-7.8125 20.4726 0 28.2812L456.6406 237H216.5c-11.0469 0-20 8.9531-20 20s8.9531 20 20 20h240.1406l-31.8554 31.8594c-7.8125 7.8086-7.8125 20.4726 0 28.2812 3.9062 3.9063 9.0234 5.8594 14.1406 5.8594 5.121 0 10.2383-1.9531 14.1445-5.8594l44.7852-44.7851c19.496-19.4961 19.496-51.2149 0-70.711zm0 0"/></svg>